<svg xmlns="http://www.w3.org/2000/svg" width="500" height="500"><path fill="#FEFEFE" d="M0 0h500v500H0V0Z"/><path fill="#9B8765" d="M227 65c20.032-.12 20.032-.12 28.674-.146 5.86-.018 11.721-.04 17.582-.08 4.733-.033 9.467-.05 14.2-.059 1.792-.005 3.584-.016 5.375-.032C319.025 64.453 341.46 70.023 362 87l2.176 1.73c15.341 12.78 26.08 30.98 30.824 50.27l.898 3.176c4.903 19.136 3.217 39.616-6.203 57.082-2.845 4.603-6.098 8.707-9.695 12.742l-1.867 2.117C366.002 227.054 351.123 232.242 334 235l2.64.113c19.232 1.062 35.837 6.794 49.36 20.887.755.724 1.51 1.449 2.29 2.195 16.88 17.112 22.01 40.728 21.952 63.959C409.937 346.305 399.77 370.708 384 389l-2.39 2.828C367.423 408.203 349.226 419.464 329 427l-3.23 1.246c-11.134 4.034-21.398 4.414-33.145 4.242-1.905-.01-3.81-.016-5.716-.021-4.958-.019-9.916-.068-14.874-.124-5.979-.06-11.958-.083-17.937-.112-9.034-.048-18.065-.144-27.098-.231v-67c23.5-.375 23.5-.375 30.873-.478 1.949-.035 3.897-.071 5.846-.108l3.016-.034c10.423-.215 20.464-2.257 28.503-9.357 8.685-9.256 13.17-20.035 13.012-32.71l-.023-2.395c-.228-12.516-2.056-23.502-10.664-33.106-13.922-12.277-27.616-11.829-45.438-11.75L227 275v-72c20.75-.188 20.75-.188 27.222-.208 13.635-.156 24.494-1.551 34.801-11.41 7.79-9.39 9.764-19.523 8.977-31.382-1.38-8.59-5.496-16.298-12.258-21.855-12.194-7.94-25.987-7.652-39.992-7.833L227 130V65ZM111 65h103v368h-96l-.028-32.968a113641.903 113641.903 0 0 0-.18-120.566l-.005-3.258c-.031-17.424-.048-34.848-.06-52.272a32875.3 32875.3 0 0 0-.082-53.614c-.025-11.032-.038-22.064-.036-33.097 0-7.56-.015-15.119-.041-22.679-.015-4.365-.023-8.73-.014-13.095.008-3.994-.002-7.988-.026-11.982-.006-1.447-.005-2.894.003-4.34.011-1.964-.005-3.928-.023-5.892l-.005-3.308C116.88 72.3 115.53 70.626 113 68l-2-1v-2Z"/></svg>