<svg xmlns="http://www.w3.org/2000/svg" width="500" height="500"><path fill="#FEFEFE" d="M0 0h500v500H0V0Z"/><path fill="#030303" d="M349 204h21c1.006 3.582 2.005 7.165 3 10.75l.867 3.078.82 2.969.762 2.73C376 226 376 226 376 230h2l.297-2.133c1.247-8.234 3.31-15.89 5.703-23.867h17c-1.123 7.861-1.123 7.861-2.418 11.723l-.854 2.597-.916 2.743a399.93 399.93 0 0 0-6.875 23.375C383.534 268.519 383.534 268.519 376 275c-6.564 3.692-13.688 3.252-21 3v-13l3.313.188c3.543.169 3.543.169 5.332-1.448 2.514-3.228 3.105-6.71 3.355-10.74-.579-3.684-1.733-7.075-2.98-10.582a637.64 637.64 0 0 0-3.113-9.103 821.103 821.103 0 0 1-3.214-9.407c-.68-1.997-1.364-3.994-2.048-5.99-.32-.935-.638-1.87-.967-2.835l-.929-2.64-.805-2.314c-1.049-2.58-1.049-2.58-3.944-6.129Z"/><path fill="#020202" d="M223 204h23l2.313 9.313C250.12 220.566 251.983 227.8 254 235c2.254-6.403 4.04-12.84 5.625-19.438.428-1.77.857-3.54 1.29-5.308l.56-2.334C262 206 262 206 263 204h18a308.164 308.164 0 0 1-4.75 20.813l-.78 2.972c-2.673 10.116-5.56 20.165-8.47 30.215h-24l-3-9c-.616-1.67-1.24-3.337-1.875-5-1.745-4.738-3.177-9.524-4.563-14.375C229.81 216.1 229.81 216.1 223 204Z"/><path fill="#9C8867" d="M113 187c2.834-.109 5.665-.188 8.5-.25l2.398-.102c5.9-.096 10.193 1.016 15.102 4.352 2.059 2 2.059 2 3.438 4l1.433 2c2.372 4.203 3.21 9.277 2.129 14-2.025 2.999-4.397 5.497-7 8l-1 1 2.75 1.563c3.599 2.455 5.88 5.286 7.25 9.437.884 5.536.787 10.387-2.063 15.313-4.248 5.844-8.852 9.893-15.937 11.687-2.965.221-5.904.19-8.875.125l-2.375-.027c-1.917-.024-3.833-.06-5.75-.098v-13l8.3-.488c2.981-.565 3.89-1.14 5.7-3.512 1.42-2.84 1.315-4.855 1-8-1.198-2.537-1.198-2.537-4-4-3.696-.633-7.24-.82-11-1v-14l4.25-.25c3.21-.364 4.589-.64 7.313-2.5 1.742-2.727 2.007-4.073 1.437-7.25-1.707-2.283-2.659-2.93-5.48-3.512l-2.707-.175L113 200v-13Z"/><path fill="#010101" d="m336.313 183.813 2.244.04c1.814.036 3.629.09 5.443.147.283 3.707.462 7.304 0 11-2.438 1.813-2.438 1.813-5 3-.892 3.096-.892 3.096-1 6h8v14h-8v40h-19v-40h-6v-14h6l-.14-2.195c-.23-6.134-.233-10.077 4.14-14.805 4.274-3.308 8.106-3.369 13.313-3.188Z"/><path fill="#9F8C6B" d="M90 261h258v6H90v-6Z"/><path fill="#050505" d="M191 203v18l-4.25.25c-3.19.36-4.53.592-7.188 2.5-3.076 4.43-3.824 8.296-3.976 13.645l-.117 3.642-.094 3.775-.117 3.834c-.094 3.118-.177 6.236-.258 9.354h-19l-1-54h20l1 7 2.25-2.875c4.114-4.886 6.063-5.125 12.75-5.125Z"/><path fill="#9B8765" d="M91 187h19v71H92l-1-71Z"/><path d="M287 204h19v54h-18l-1-54ZM196 204h19v54h-18l-1-54Z"/><path fill="#F2F0EB" d="M110 187h3v13l4.75-.25c3.43.015 4.925.061 7.938 1.813 1.906 3.54 1.418 5.636.312 9.437-1.5 1.938-1.5 1.938-4 3-3.048.231-5.934.135-9 0v14l5.188-.313c4.128.006 5.47.085 9 2.438 2.142 3.4 2.47 4.93 1.812 8.875-2.265 4.632-2.265 4.632-5 6-3.67.138-7.326.043-11 0v13h16v1l219 1v1H90l2-3h18v-71Z"/><path fill="#020202" d="M288 184h18v14h-18v-14ZM197 184h18v14h-18v-14Z"/><path fill="#F7F5F3" d="M111 245h1v13h17l-1 2a468.056 468.056 0 0 1-36-1v-1h19v-13Z"/></svg>