<?xml version="1.0" encoding="UTF-8"?>
<svg version="1.1" xmlns="http://www.w3.org/2000/svg" width="500" height="500">
<path d="M0 0 C165 0 330 0 500 0 C500 165 500 330 500 500 C335 500 170 500 0 500 C0 335 0 170 0 0 Z " fill="#FEFEFE" transform="translate(0,0)"/>
<path d="M0 0 C20.032122 -0.12032643 20.032122 -0.12032643 28.67382812 -0.14648438 C34.5346711 -0.1643099 40.39537142 -0.18522981 46.25610352 -0.22631836 C50.98941151 -0.25928915 55.72256619 -0.27693114 60.4559803 -0.28463173 C62.24778718 -0.29010843 64.03958716 -0.30079936 65.83132744 -0.31719017 C92.02457266 -0.54693397 114.45961167 5.02236929 135 22 C135.71800781 22.57105469 136.43601562 23.14210938 137.17578125 23.73046875 C152.51697566 36.51025592 163.25555987 54.71073584 168 74 C168.29648437 75.04800781 168.59296875 76.09601563 168.8984375 77.17578125 C173.80058311 96.31213867 172.11463408 116.79183429 162.6953125 134.2578125 C159.84975575 138.86053332 156.59712654 142.96520027 153 147 C152.38382813 147.69867188 151.76765625 148.39734375 151.1328125 149.1171875 C139.00171671 162.05366724 124.12320059 167.24217683 107 170 C107.87140625 170.03738281 108.7428125 170.07476562 109.640625 170.11328125 C128.87163803 171.17473327 145.47660186 176.90719562 159 191 C159.75539063 191.72445312 160.51078125 192.44890625 161.2890625 193.1953125 C178.16918583 210.30746502 183.30090143 233.92303241 183.2421875 257.15356445 C182.93673271 281.30549306 172.76930601 305.70760503 157 324 C155.81664062 325.39992188 155.81664062 325.39992188 154.609375 326.828125 C140.42373544 343.2031028 122.22650489 354.46426284 102 362 C100.93409637 362.4112915 99.86819275 362.82258301 98.76998901 363.24633789 C87.63611749 367.27957467 77.37196686 367.66031786 65.625 367.48828125 C63.71973611 367.47892886 61.81446001 367.47182426 59.90917969 367.46684265 C54.95077953 367.44796345 49.99313898 367.39903292 45.03503418 367.34332275 C39.05601697 367.28260193 33.07674245 367.26012295 27.09750366 367.23105621 C18.06447792 367.18295174 9.0331111 367.08700556 0 367 C0 344.89 0 322.78 0 300 C23.5 299.625 23.5 299.625 30.87304688 299.52197266 C32.82162799 299.48673639 34.77019683 299.45081182 36.71875 299.4140625 C38.21196777 299.39702271 38.21196777 299.39702271 39.73535156 299.37963867 C50.15797937 299.16487251 60.19898281 297.12271326 68.23828125 290.0234375 C76.92264844 280.76665439 81.40871091 269.9876687 81.25 257.3125 C81.24250732 256.52230469 81.23501465 255.73210937 81.22729492 254.91796875 C80.99924125 242.40177153 79.17057519 231.41594148 70.5625 221.8125 C56.6409107 209.53470867 42.94659597 209.98314245 25.125 210.0625 C16.83375 210.041875 8.5425 210.02125 0 210 C0 186.24 0 162.48 0 138 C20.75 137.8125 20.75 137.8125 27.22167969 137.79223633 C40.85741428 137.63588011 51.71592446 136.24054315 62.0234375 126.3828125 C69.8137372 116.99134448 71.78661304 106.85856264 71 95 C69.62090627 86.40913173 65.50421149 78.70155788 58.7421875 73.14453125 C46.54801117 65.20459329 32.75464876 65.49344315 18.75 65.3125 C12.5625 65.209375 6.375 65.10625 0 65 C0 43.55 0 22.1 0 0 Z " fill="#9B8765" transform="translate(227,65)"/>
<path d="M0 0 C33.99 0 67.98 0 103 0 C103 121.44 103 242.88 103 368 C71.32 368 39.64 368 7 368 C6.9906543 357.12071533 6.98130859 346.24143066 6.97167969 335.0324707 C6.93898965 300.24485043 6.88671622 265.45728435 6.82207905 230.66970934 C6.81206128 225.26849465 6.80221721 219.86727966 6.79248047 214.46606445 C6.78956841 212.8530998 6.78956841 212.8530998 6.78659752 211.20755001 C6.75555471 193.78364213 6.73859051 176.35974743 6.72680578 158.9358171 C6.71440603 141.06460916 6.68693128 123.19347053 6.64538693 105.32230633 C6.62021781 94.28991684 6.60688521 83.25764224 6.60857043 72.22522362 C6.60860012 64.66555545 6.59402093 57.10600454 6.56783572 49.54638205 C6.55315073 45.18123996 6.54502006 40.81633836 6.55419731 36.45117569 C6.56245298 32.45689919 6.55241625 28.46310696 6.52766338 24.46890249 C6.52195538 23.02199665 6.52303272 21.57504528 6.53148755 20.12815288 C6.54198061 18.16461162 6.52559161 16.20098134 6.50780869 14.23749256 C6.5062898 13.14579661 6.50477092 12.05410066 6.50320601 10.92932302 C5.87967054 7.29952374 4.53033127 5.62630351 2 3 C1.34 2.67 0.68 2.34 0 2 C0 1.34 0 0.68 0 0 Z " fill="#9B8765" transform="translate(111,65)"/>
</svg>
