<?xml version="1.0" encoding="UTF-8"?>
<svg version="1.1" xmlns="http://www.w3.org/2000/svg" width="500" height="500">
<path d="M0 0 C165 0 330 0 500 0 C500 165 500 330 500 500 C335 500 170 500 0 500 C0 335 0 170 0 0 Z " fill="#FEFEFE" transform="translate(0,0)"/>
<path d="M0 0 C6.93 0 13.86 0 21 0 C22.00622742 3.58169045 23.00520012 7.16513557 24 10.75 C24.28617187 11.76578125 24.57234375 12.7815625 24.8671875 13.828125 C25.27324219 15.29765625 25.27324219 15.29765625 25.6875 16.796875 C25.93886719 17.69760742 26.19023437 18.59833984 26.44921875 19.52636719 C27 22 27 22 27 26 C27.66 26 28.32 26 29 26 C29.09796875 25.29617187 29.1959375 24.59234375 29.296875 23.8671875 C30.54381037 15.63311429 32.60677466 7.97741781 35 0 C40.61 0 46.22 0 52 0 C50.87696629 7.86123596 50.87696629 7.86123596 49.58203125 11.72265625 C49.30029053 12.57980225 49.0185498 13.43694824 48.72827148 14.32006836 C48.42606689 15.2250708 48.1238623 16.13007324 47.8125 17.0625 C45.27711722 24.80171189 42.99791716 32.55919152 40.9375 40.4375 C34.53413092 64.5192734 34.53413092 64.5192734 27 71 C20.43579471 74.69157802 13.31178068 74.25213037 6 74 C6 69.71 6 65.42 6 61 C7.6396875 61.0928125 7.6396875 61.0928125 9.3125 61.1875 C12.85638319 61.35673372 12.85638319 61.35673372 14.64460754 59.73991394 C17.15915519 56.51199535 17.75010097 53.02944731 18 49 C17.42132835 45.3162544 16.26652969 41.92498844 15.01953125 38.41796875 C14.6908757 37.44136795 14.36222015 36.46476715 14.02360535 35.45857239 C13.32860081 33.40701438 12.62285834 31.35906593 11.90698242 29.31469727 C10.81223548 26.18674421 9.75015846 23.04915626 8.69335938 19.90820312 C8.01228612 17.91081991 7.32940528 15.91405193 6.64453125 13.91796875 C6.32563431 12.98252731 6.00673737 12.04708588 5.67817688 11.08329773 C5.37163681 10.21171524 5.06509674 9.34013275 4.74926758 8.44213867 C4.48342361 7.6787468 4.21757965 6.91535492 3.94367981 6.12882996 C2.89515014 3.54864512 2.89515014 3.54864512 0 0 Z " fill="#030303" transform="translate(349,204)"/>
<path d="M0 0 C7.59 0 15.18 0 23 0 C23.763125 3.073125 24.52625 6.14625 25.3125 9.3125 C27.12014682 16.56721279 28.98402604 23.79996351 31 31 C33.2542817 24.59725444 35.04036522 18.16025405 36.625 11.5625 C37.05255977 9.79245344 37.48214665 8.02289491 37.9140625 6.25390625 C38.0992041 5.48377197 38.2843457 4.7136377 38.47509766 3.92016602 C39 2 39 2 40 0 C45.94 0 51.88 0 58 0 C56.65676124 7.01398729 55.07380716 13.90894141 53.25 20.8125 C52.9926709 21.79355713 52.7353418 22.77461426 52.47021484 23.78540039 C49.79698954 33.90107276 46.91092901 43.95036415 44 54 C36.08 54 28.16 54 20 54 C18.515 49.545 18.515 49.545 17 45 C16.38351958 43.33016328 15.75983991 41.66294349 15.125 40 C13.37985281 35.26222398 11.94832738 30.47593464 10.5625 25.625 C6.80906818 12.09989305 6.80906818 12.09989305 0 0 Z " fill="#020202" transform="translate(223,204)"/>
<path d="M0 0 C2.83439137 -0.10901505 5.66450203 -0.18777904 8.5 -0.25 C9.29148437 -0.28351563 10.08296875 -0.31703125 10.8984375 -0.3515625 C16.79739555 -0.44826673 21.09099669 0.66400772 26 4 C28.05859375 6 28.05859375 6 29.4375 8 C29.91058594 8.66 30.38367188 9.32 30.87109375 10 C33.24337974 14.20280424 34.0807825 19.27689535 33 24 C30.97495632 26.99872197 28.60303814 29.49683863 26 32 C25.67 32.33 25.34 32.66 25 33 C25.9075 33.515625 26.815 34.03125 27.75 34.5625 C31.34853767 37.01837405 33.6292353 39.84941638 35 44 C35.8840554 49.53567401 35.78731295 54.38666437 32.9375 59.3125 C28.68933846 65.15672223 24.08463732 69.2060004 17 71 C14.03478425 71.22119623 11.09620545 71.19046724 8.125 71.125 C7.34125 71.11597656 6.5575 71.10695313 5.75 71.09765625 C3.83319945 71.07428063 1.91655809 71.03841653 0 71 C0 66.71 0 62.42 0 58 C2.76692708 57.83723958 5.53385417 57.67447917 8.30078125 57.51171875 C11.28131294 56.9466686 12.1903363 56.37188932 14 54 C15.42041821 51.15916359 15.31452272 49.14522722 15 46 C13.8017483 43.4631891 13.8017483 43.4631891 11 42 C7.30429487 41.3672102 3.76073926 41.17908282 0 41 C0 36.38 0 31.76 0 27 C2.10375 26.87625 2.10375 26.87625 4.25 26.75 C7.46066713 26.38595585 8.83874152 26.11012774 11.5625 24.25 C13.30462845 21.52319026 13.57018821 20.17676286 13 17 C11.2932019 14.71688046 10.34099396 14.07034679 7.51953125 13.48828125 C6.17955078 13.40126953 6.17955078 13.40126953 4.8125 13.3125 C2.4303125 13.1578125 2.4303125 13.1578125 0 13 C0 8.71 0 4.42 0 0 Z " fill="#9C8867" transform="translate(113,187)"/>
<path d="M0 0 C1.11084961 0.02030273 1.11084961 0.02030273 2.24414062 0.04101562 C4.05891075 0.07614021 5.87330288 0.12994028 7.6875 0.1875 C7.9707086 3.8943859 8.14951842 7.4913526 7.6875 11.1875 C5.25 13 5.25 13 2.6875 14.1875 C1.79542821 17.2832107 1.79542821 17.2832107 1.6875 20.1875 C4.3275 20.1875 6.9675 20.1875 9.6875 20.1875 C9.6875 24.8075 9.6875 29.4275 9.6875 34.1875 C7.0475 34.1875 4.4075 34.1875 1.6875 34.1875 C1.6875 47.3875 1.6875 60.5875 1.6875 74.1875 C-4.5825 74.1875 -10.8525 74.1875 -17.3125 74.1875 C-17.3125 60.9875 -17.3125 47.7875 -17.3125 34.1875 C-19.2925 34.1875 -21.2725 34.1875 -23.3125 34.1875 C-23.3125 29.5675 -23.3125 24.9475 -23.3125 20.1875 C-21.3325 20.1875 -19.3525 20.1875 -17.3125 20.1875 C-17.35890625 19.46304688 -17.4053125 18.73859375 -17.453125 17.9921875 C-17.68209952 11.85894137 -17.68561072 7.91518727 -13.3125 3.1875 C-9.03862524 -0.1200391 -5.20614272 -0.18144733 0 0 Z " fill="#010101" transform="translate(336.3125,183.8125)"/>
<path d="M0 0 C85.14 0 170.28 0 258 0 C258 1.98 258 3.96 258 6 C172.86 6 87.72 6 0 6 C0 4.02 0 2.04 0 0 Z " fill="#9F8C6B" transform="translate(90,261)"/>
<path d="M0 0 C0 5.94 0 11.88 0 18 C-2.10375 18.12375 -2.10375 18.12375 -4.25 18.25 C-7.43950822 18.61050956 -8.77994588 18.84201243 -11.4375 20.75 C-14.51410515 25.18031141 -15.26198257 29.04638721 -15.4140625 34.39453125 C-15.45273438 35.59658203 -15.49140625 36.79863281 -15.53125 38.03710938 C-15.5621875 39.28298828 -15.593125 40.52886719 -15.625 41.8125 C-15.66367188 43.07771484 -15.70234375 44.34292969 -15.7421875 45.64648438 C-15.8363038 48.76408675 -15.91923441 51.8820232 -16 55 C-22.27 55 -28.54 55 -35 55 C-35.33 37.18 -35.66 19.36 -36 1 C-29.4 1 -22.8 1 -16 1 C-15.67 3.31 -15.34 5.62 -15 8 C-14.2575 7.05125 -13.515 6.1025 -12.75 5.125 C-8.63608569 0.23900653 -6.68692588 0 0 0 Z " fill="#050505" transform="translate(191,203)"/>
<path d="M0 0 C6.27 0 12.54 0 19 0 C19 23.43 19 46.86 19 71 C13.06 71 7.12 71 1 71 C0.67 47.57 0.34 24.14 0 0 Z " fill="#9B8765" transform="translate(91,187)"/>
<path d="M0 0 C6.27 0 12.54 0 19 0 C19 17.82 19 35.64 19 54 C13.06 54 7.12 54 1 54 C0.67 36.18 0.34 18.36 0 0 Z " fill="#000000" transform="translate(287,204)"/>
<path d="M0 0 C6.27 0 12.54 0 19 0 C19 17.82 19 35.64 19 54 C13.06 54 7.12 54 1 54 C0.67 36.18 0.34 18.36 0 0 Z " fill="#000000" transform="translate(196,204)"/>
<path d="M0 0 C0.99 0 1.98 0 3 0 C3 4.29 3 8.58 3 13 C4.5675 12.9175 6.135 12.835 7.75 12.75 C11.18072439 12.76459883 12.67503197 12.8110651 15.6875 14.5625 C17.59417159 18.10346152 17.10579562 20.19882756 16 24 C14.5 25.9375 14.5 25.9375 12 27 C8.95234487 27.23120142 6.06631223 27.13527848 3 27 C3 31.62 3 36.24 3 41 C4.711875 40.896875 6.42375 40.79375 8.1875 40.6875 C12.31551653 40.69281961 13.65860356 40.77240237 17.1875 43.125 C19.33038619 46.52406085 19.65741915 48.05548508 19 52 C16.73529412 56.63235294 16.73529412 56.63235294 14 58 C10.32984725 58.1377685 6.67388652 58.04271961 3 58 C3 62.29 3 66.58 3 71 C8.28 71 13.56 71 19 71 C19 71.33 19 71.66 19 72 C91.27 72.33 163.54 72.66 238 73 C238 73.33 238 73.66 238 74 C152.86 74 67.72 74 -20 74 C-19.34 73.01 -18.68 72.02 -18 71 C-12.06 71 -6.12 71 0 71 C0 47.57 0 24.14 0 0 Z " fill="#F2F0EB" transform="translate(110,187)"/>
<path d="M0 0 C5.94 0 11.88 0 18 0 C18 4.62 18 9.24 18 14 C12.06 14 6.12 14 0 14 C0 9.38 0 4.76 0 0 Z " fill="#020202" transform="translate(288,184)"/>
<path d="M0 0 C5.94 0 11.88 0 18 0 C18 4.62 18 9.24 18 14 C12.06 14 6.12 14 0 14 C0 9.38 0 4.76 0 0 Z " fill="#020202" transform="translate(197,184)"/>
<path d="M0 0 C0.33 0 0.66 0 1 0 C1 4.29 1 8.58 1 13 C6.61 13 12.22 13 18 13 C17.67 13.66 17.34 14.32 17 15 C4.95605749 15.12812705 -6.98168818 14.79553837 -19 14 C-19 13.67 -19 13.34 -19 13 C-12.73 13 -6.46 13 0 13 C0 8.71 0 4.42 0 0 Z " fill="#F7F5F3" transform="translate(111,245)"/>
</svg>
